<svg width="88" height="88" viewBox="0 0 88 88" fill="none" xmlns="http://www.w3.org/2000/svg">
<circle cx="44" cy="44" r="44" fill="#F2FDD1"/>
<g clip-path="url(#clip0_125_3430)">
<path fill-rule="evenodd" clip-rule="evenodd" d="M28 28H30V58H60V60H28V28ZM48 35C48 34.7348 48.1054 34.4804 48.2929 34.2929C48.4804 34.1054 48.7348 34 49 34H57C57.2652 34 57.5196 34.1054 57.7071 34.2929C57.8946 34.4804 58 34.7348 58 35V43C58 43.2652 57.8946 43.5196 57.7071 43.7071C57.5196 43.8946 57.2652 44 57 44C56.7348 44 56.4804 43.8946 56.2929 43.7071C56.1054 43.5196 56 43.2652 56 43V37.8L48.774 46.634C48.6855 46.742 48.5755 46.8302 48.4508 46.8931C48.3262 46.956 48.1898 46.992 48.0504 46.999C47.911 47.006 47.7717 46.9837 47.6414 46.9336C47.5111 46.8834 47.3928 46.8066 47.294 46.708L42.12 41.534L34.808 51.588C34.648 51.7914 34.4155 51.9249 34.1592 51.9604C33.9029 51.9959 33.6428 51.9307 33.4335 51.7784C33.2243 51.6261 33.0823 51.3987 33.0372 51.1439C32.9922 50.8891 33.0477 50.6268 33.192 50.412L41.192 39.412C41.2769 39.295 41.3862 39.1979 41.5123 39.1272C41.6383 39.0565 41.7782 39.014 41.9223 39.0026C42.0664 38.9912 42.2113 39.0111 42.3469 39.0611C42.4826 39.1111 42.6057 39.1898 42.708 39.292L47.926 44.512L54.89 36H49C48.7348 36 48.4804 35.8946 48.2929 35.7071C48.1054 35.5196 48 35.2652 48 35Z" fill="#98BD2A"/>
</g>
<defs>
<clipPath id="clip0_125_3430">
<rect width="32" height="32" fill="white" transform="translate(28 28)"/>
</clipPath>
</defs>
</svg>
