<svg width="88" height="88" viewBox="0 0 88 88" fill="none" xmlns="http://www.w3.org/2000/svg">
<circle cx="44" cy="44" r="44" fill="#E8F1FC"/>
<path fill-rule="evenodd" clip-rule="evenodd" d="M28 28H30V58H60V60H28V28ZM48 51C48 51.2652 48.1054 51.5196 48.2929 51.7071C48.4804 51.8946 48.7348 52 49 52H57C57.2652 52 57.5196 51.8946 57.7071 51.7071C57.8946 51.5196 58 51.2652 58 51V43C58 42.7348 57.8946 42.4804 57.7071 42.2929C57.5196 42.1054 57.2652 42 57 42C56.7348 42 56.4804 42.1054 56.2929 42.2929C56.1054 42.4804 56 42.7348 56 43V48.2L48.774 39.366C48.6855 39.258 48.5755 39.1698 48.4508 39.1069C48.3262 39.044 48.1898 39.008 48.0504 39.001C47.911 38.994 47.7717 39.0163 47.6414 39.0664C47.5111 39.1166 47.3928 39.1934 47.294 39.292L42.12 44.466L34.808 34.412C34.648 34.2086 34.4155 34.0751 34.1592 34.0396C33.9029 34.0041 33.6428 34.0693 33.4335 34.2216C33.2243 34.3739 33.0823 34.6013 33.0372 34.8561C32.9922 35.1109 33.0477 35.3732 33.192 35.588L41.192 46.588C41.2769 46.705 41.3862 46.8021 41.5123 46.8728C41.6383 46.9435 41.7782 46.986 41.9223 46.9974C42.0664 47.0088 42.2113 46.9889 42.3469 46.9389C42.4826 46.8889 42.6057 46.8102 42.708 46.708L47.926 41.488L54.89 50H49C48.7348 50 48.4804 50.1054 48.2929 50.2929C48.1054 50.4804 48 50.7348 48 51Z" fill="#5899E9"/>
</svg>
