<svg width="47" height="46" viewBox="0 0 47 46" fill="none" xmlns="http://www.w3.org/2000/svg">
<circle cx="23.5" cy="23" r="23" fill="#0078FF"/>
<path fill-rule="evenodd" clip-rule="evenodd" d="M22.4272 14C18.0563 14 14.5 17.5563 14.5 21.9272C14.5 26.2985 18.0563 29.8545 22.4272 29.8545C24.3501 29.8545 26.1152 29.1664 27.4893 28.0235L31.2514 31.7855C31.3943 31.9285 31.5814 31.9999 31.7687 31.9999C31.9558 31.9999 32.1431 31.9285 32.2861 31.7855C32.5719 31.4999 32.5719 31.0365 32.2861 30.7508L28.5239 26.9887C29.6666 25.6147 30.3545 23.8498 30.3545 21.9272C30.3545 17.5563 26.7985 14 22.4272 14ZM22.4253 28.3907C18.8613 28.3907 15.9616 25.491 15.9616 21.9269C15.9616 18.3628 18.8613 15.4631 22.4253 15.4631C25.9894 15.4631 28.8891 18.3628 28.8891 21.9269C28.8891 25.491 25.9894 28.3907 22.4253 28.3907Z" fill="white"/>
<path d="M27.4893 28.0235L27.8428 27.6699L27.5203 27.3474L27.1696 27.6391L27.4893 28.0235ZM32.2861 31.7855L31.9327 31.4318L31.9325 31.4319L32.2861 31.7855ZM32.2861 30.7508L31.9325 31.1044L31.9327 31.1045L32.2861 30.7508ZM28.5239 26.9887L28.1395 26.669L27.8479 27.0197L28.1704 27.3423L28.5239 26.9887ZM15 21.9272C15 17.8324 18.3324 14.5 22.4272 14.5V13.5C17.7801 13.5 14 17.2801 14 21.9272H15ZM22.4272 29.3545C18.3324 29.3545 15 26.0223 15 21.9272H14C14 26.5746 17.7801 30.3545 22.4272 30.3545V29.3545ZM27.1696 27.6391C25.8817 28.7103 24.2287 29.3545 22.4272 29.3545V30.3545C24.4715 30.3545 26.3488 29.6225 27.809 28.4079L27.1696 27.6391ZM27.1357 28.377L30.8978 32.1391L31.6049 31.432L27.8428 27.6699L27.1357 28.377ZM30.8978 32.1391C31.1381 32.3794 31.454 32.4999 31.7687 32.4999V31.4999C31.7087 31.4999 31.6504 31.4775 31.6049 31.432L30.8978 32.1391ZM31.7687 32.4999C32.0831 32.4999 32.3992 32.3795 32.6396 32.1391L31.9325 31.4319C31.887 31.4775 31.8285 31.4999 31.7687 31.4999V32.4999ZM32.6395 32.1392C33.1208 31.6583 33.1208 30.8781 32.6395 30.3971L31.9327 31.1045C32.0231 31.1949 32.0231 31.3415 31.9327 31.4318L32.6395 32.1392ZM32.6396 30.3973L28.8775 26.6352L28.1704 27.3423L31.9325 31.1044L32.6396 30.3973ZM29.8545 21.9272C29.8545 23.7284 29.2105 25.3812 28.1395 26.669L28.9084 27.3084C30.1227 25.8483 30.8545 23.9713 30.8545 21.9272H29.8545ZM22.4272 14.5C26.5223 14.5 29.8545 17.8324 29.8545 21.9272H30.8545C30.8545 17.2801 27.0746 13.5 22.4272 13.5V14.5ZM15.4616 21.9269C15.4616 25.7672 18.5851 28.8907 22.4253 28.8907V27.8907C19.1374 27.8907 16.4616 25.2149 16.4616 21.9269H15.4616ZM22.4253 14.9631C18.5851 14.9631 15.4616 18.0867 15.4616 21.9269H16.4616C16.4616 18.639 19.1374 15.9631 22.4253 15.9631V14.9631ZM29.3891 21.9269C29.3891 18.0867 26.2656 14.9631 22.4253 14.9631V15.9631C25.7133 15.9631 28.3891 18.639 28.3891 21.9269H29.3891ZM22.4253 28.8907C26.2656 28.8907 29.3891 25.7671 29.3891 21.9269H28.3891C28.3891 25.2148 25.7133 27.8907 22.4253 27.8907V28.8907Z" fill="white"/>
</svg>
