<svg width="88" height="88" viewBox="0 0 88 88" fill="none" xmlns="http://www.w3.org/2000/svg">
<circle cx="44" cy="44" r="44" fill="#F2FDD1"/>
<path d="M41.0342 53.8939V37.1334C41.0342 35.869 42.0628 34.8403 43.3268 34.8403H45.5174C46.7819 34.8403 47.8105 35.8689 47.8105 37.1334V53.8939C47.8105 55.1583 46.782 56.1864 45.5174 56.1864H43.3268C42.0628 56.1864 41.0342 55.1581 41.0342 53.8939ZM43.3268 54.532H45.5174C45.8694 54.532 46.1556 54.2455 46.1556 53.8939V37.1334C46.1556 36.7815 45.8691 36.4953 45.5174 36.4953H43.3268C42.9749 36.4953 42.6887 36.7818 42.6887 37.1334V53.8939C42.6884 54.2458 42.9754 54.532 43.3268 54.532Z" fill="#98AB60"/>
<path d="M49.8262 53.9407V28.2931C49.8262 27.0286 50.8548 26 52.1188 26H54.3094C55.5739 26 56.6025 27.0286 56.6025 28.2931V53.9407C56.6025 55.2052 55.574 56.2333 54.3094 56.2333H52.1188C50.8548 56.2328 49.8262 55.2047 49.8262 53.9402V53.9407ZM52.1193 54.5789H54.31C54.6619 54.5789 54.9481 54.2924 54.9481 53.9407L54.9484 28.2931C54.9484 27.9412 54.6619 27.655 54.3102 27.655H52.1196C51.7676 27.655 51.4814 27.9414 51.4814 28.2931V53.9407C51.4812 54.2921 51.7674 54.5784 52.1193 54.5784V54.5789Z" fill="#98AB60"/>
<path d="M32.2408 53.8939V45.2794C32.2408 44.015 33.2693 42.9863 34.5333 42.9863H36.724C37.9885 42.9863 39.0171 44.0149 39.0171 45.2794V53.8932C39.0171 55.1577 37.9885 56.1858 36.724 56.1858H34.5333C33.2694 56.1861 32.2408 55.1577 32.2408 53.8935V53.8939ZM34.5333 54.5321H36.724C37.0759 54.5321 37.3621 54.2456 37.3621 53.8939V45.2794C37.3621 44.9275 37.0757 44.6413 36.724 44.6413H34.5333C34.1814 44.6413 33.8952 44.9278 33.8952 45.2794V53.8932C33.8949 54.2454 34.1814 54.5317 34.5333 54.5317V54.5321Z" fill="#98AB60"/>
<path d="M61.1207 58.4858L59.6544 57.0196C59.3308 56.6969 58.8069 56.6977 58.4844 57.0201C58.3281 57.1764 58.2423 57.3841 58.2423 57.6054C58.2423 57.8261 58.3286 58.0343 58.4844 58.1901L58.5378 58.2435L29.7582 58.2438C29.4063 58.2438 29.1201 57.9573 29.1201 57.6056L29.1198 28.8253L29.1727 28.8782C29.4851 29.1906 30.0306 29.1906 30.343 28.8787C30.4993 28.7224 30.585 28.5147 30.585 28.2935C30.585 28.0722 30.4988 27.8645 30.343 27.7082L28.8772 26.243C28.5546 25.9203 28.0296 25.9203 27.7072 26.243L26.2414 27.7087C25.9195 28.0306 25.9195 28.5559 26.2414 28.8783C26.5641 29.2009 27.089 29.2009 27.4115 28.8783L27.4643 28.8254V57.605C27.4643 58.8695 28.4929 59.8981 29.7574 59.8981H58.537L58.4842 59.951C58.3271 60.1073 58.2408 60.315 58.2408 60.5362C58.2408 60.757 58.3271 60.9652 58.4829 61.1205C58.6392 61.2768 58.8469 61.363 59.0681 61.363C59.2889 61.363 59.4971 61.2768 59.6542 61.121L61.1186 59.6552C61.2757 59.4989 61.362 59.2912 61.362 59.0705C61.3622 58.85 61.276 58.6413 61.1202 58.4855L61.1207 58.4858Z" fill="#98AB60"/>
</svg>
